<?xml version="1.0" encoding="utf-8"?>
<!-- Generator: Adobe Illustrator 16.0.0, SVG Export Plug-In . SVG Version: 6.00 Build 0)  -->
<!DOCTYPE svg PUBLIC "-//W3C//DTD SVG 1.1//EN" "http://www.w3.org/Graphics/SVG/1.1/DTD/svg11.dtd">
<svg version="1.1" id="Layer_1" xmlns="http://www.w3.org/2000/svg" xmlns:xlink="http://www.w3.org/1999/xlink" x="0px" y="0px"
	 width="1440px" height="784px" viewBox="0 0 1440 784" enable-background="new 0 0 1440 784" xml:space="preserve">
<g>
	<g>
		<g>
			<defs>
				<rect id="SVGID_1_" width="1440" height="784"/>
			</defs>
			<clipPath id="SVGID_2_">
				<use xlink:href="#SVGID_1_"  overflow="visible"/>
			</clipPath>
			<rect clip-path="url(#SVGID_2_)" fill="#FFFFFF" width="1440" height="784"/>
		</g>
	</g>
	<g>
		<rect fill="#FFFFFF" width="1440" height="784"/>
		<path fill="#FFFFFF" d="M187,640h1116V59H187V640z"/>
	</g>
	<g>
		
			<line fill="none" stroke="#262626" stroke-width="0.6667" stroke-linecap="square" stroke-linejoin="round" stroke-miterlimit="10" x1="187" y1="640" x2="1303" y2="640"/>
		
			<line fill="none" stroke="#262626" stroke-width="0.6667" stroke-linecap="square" stroke-linejoin="round" stroke-miterlimit="10" x1="187" y1="59" x2="1303" y2="59"/>
		
			<line fill="none" stroke="#262626" stroke-width="0.6667" stroke-linecap="square" stroke-linejoin="round" stroke-miterlimit="10" x1="326.5" y1="640" x2="326.5" y2="628.84"/>
		
			<line fill="none" stroke="#262626" stroke-width="0.6667" stroke-linecap="square" stroke-linejoin="round" stroke-miterlimit="10" x1="605.5" y1="640" x2="605.5" y2="628.84"/>
		
			<line fill="none" stroke="#262626" stroke-width="0.6667" stroke-linecap="square" stroke-linejoin="round" stroke-miterlimit="10" x1="884.5" y1="640" x2="884.5" y2="628.84"/>
		
			<line fill="none" stroke="#262626" stroke-width="0.6667" stroke-linecap="square" stroke-linejoin="round" stroke-miterlimit="10" x1="1163.5" y1="640" x2="1163.5" y2="628.84"/>
		
			<line fill="none" stroke="#262626" stroke-width="0.6667" stroke-linecap="square" stroke-linejoin="round" stroke-miterlimit="10" x1="326.5" y1="59" x2="326.5" y2="70.16"/>
		
			<line fill="none" stroke="#262626" stroke-width="0.6667" stroke-linecap="square" stroke-linejoin="round" stroke-miterlimit="10" x1="605.5" y1="59" x2="605.5" y2="70.16"/>
		
			<line fill="none" stroke="#262626" stroke-width="0.6667" stroke-linecap="square" stroke-linejoin="round" stroke-miterlimit="10" x1="884.5" y1="59" x2="884.5" y2="70.16"/>
		
			<line fill="none" stroke="#262626" stroke-width="0.6667" stroke-linecap="square" stroke-linejoin="round" stroke-miterlimit="10" x1="1163.5" y1="59" x2="1163.5" y2="70.16"/>
	</g>
	<g transform="translate(326.5,647.4667) rotate(-30)">
		<text transform="matrix(1 0 0 1 -218.9997 25.0001)" fill="#262626" font-family="'MyriadPro-Regular'" font-size="24">Matlab&apos;s jsondecode</text>
	</g>
	<g transform="translate(605.5,647.4667) rotate(-30)">
		<text transform="matrix(1 0 0 1 -201.0002 24.9998)" fill="#262626" font-family="'MyriadPro-Regular'" font-size="24">CP&apos;s Matlab-JSON</text>
	</g>
	<g transform="translate(884.5,647.4667) rotate(-30)">
		<text transform="matrix(1 0 0 1 -149.0002 24.9998)" fill="#262626" font-family="'MyriadPro-Regular'" font-size="24">C++ JSON IO</text>
	</g>
	<g transform="translate(1163.5,647.4667) rotate(-30)">
		<text transform="matrix(1 0 0 1 -105 25.0002)" fill="#262626" font-family="'MyriadPro-Regular'" font-size="24">JSONLab</text>
	</g>
	<g>
		
			<line fill="none" stroke="#262626" stroke-width="0.6667" stroke-linecap="square" stroke-linejoin="round" stroke-miterlimit="10" x1="187" y1="640" x2="187" y2="59"/>
		
			<line fill="none" stroke="#262626" stroke-width="0.6667" stroke-linecap="square" stroke-linejoin="round" stroke-miterlimit="10" x1="1303" y1="640" x2="1303" y2="59"/>
		
			<line fill="none" stroke="#262626" stroke-width="0.6667" stroke-linecap="square" stroke-linejoin="round" stroke-miterlimit="10" x1="187" y1="615.577" x2="198.16" y2="615.577"/>
		
			<line fill="none" stroke="#262626" stroke-width="0.6667" stroke-linecap="square" stroke-linejoin="round" stroke-miterlimit="10" x1="187" y1="451.547" x2="198.16" y2="451.547"/>
		
			<line fill="none" stroke="#262626" stroke-width="0.6667" stroke-linecap="square" stroke-linejoin="round" stroke-miterlimit="10" x1="187" y1="287.515" x2="198.16" y2="287.515"/>
		
			<line fill="none" stroke="#262626" stroke-width="0.6667" stroke-linecap="square" stroke-linejoin="round" stroke-miterlimit="10" x1="187" y1="123.484" x2="198.16" y2="123.484"/>
		
			<line fill="none" stroke="#262626" stroke-width="0.6667" stroke-linecap="square" stroke-linejoin="round" stroke-miterlimit="10" x1="1303" y1="615.577" x2="1291.84" y2="615.577"/>
		
			<line fill="none" stroke="#262626" stroke-width="0.6667" stroke-linecap="square" stroke-linejoin="round" stroke-miterlimit="10" x1="1303" y1="451.547" x2="1291.84" y2="451.547"/>
		
			<line fill="none" stroke="#262626" stroke-width="0.6667" stroke-linecap="square" stroke-linejoin="round" stroke-miterlimit="10" x1="1303" y1="287.515" x2="1291.84" y2="287.515"/>
		
			<line fill="none" stroke="#262626" stroke-width="0.6667" stroke-linecap="square" stroke-linejoin="round" stroke-miterlimit="10" x1="1303" y1="123.484" x2="1291.84" y2="123.484"/>
		
			<line fill="none" stroke="#262626" stroke-width="0.6667" stroke-linecap="square" stroke-linejoin="round" stroke-miterlimit="10" x1="187" y1="631.474" x2="192.58" y2="631.474"/>
		
			<line fill="none" stroke="#262626" stroke-width="0.6667" stroke-linecap="square" stroke-linejoin="round" stroke-miterlimit="10" x1="187" y1="623.083" x2="192.58" y2="623.083"/>
		
			<line fill="none" stroke="#262626" stroke-width="0.6667" stroke-linecap="square" stroke-linejoin="round" stroke-miterlimit="10" x1="187" y1="615.577" x2="192.58" y2="615.577"/>
		
			<line fill="none" stroke="#262626" stroke-width="0.6667" stroke-linecap="square" stroke-linejoin="round" stroke-miterlimit="10" x1="187" y1="566.199" x2="192.58" y2="566.199"/>
		
			<line fill="none" stroke="#262626" stroke-width="0.6667" stroke-linecap="square" stroke-linejoin="round" stroke-miterlimit="10" x1="187" y1="537.315" x2="192.58" y2="537.315"/>
		
			<line fill="none" stroke="#262626" stroke-width="0.6667" stroke-linecap="square" stroke-linejoin="round" stroke-miterlimit="10" x1="187" y1="516.821" x2="192.58" y2="516.821"/>
		
			<line fill="none" stroke="#262626" stroke-width="0.6667" stroke-linecap="square" stroke-linejoin="round" stroke-miterlimit="10" x1="187" y1="500.925" x2="192.58" y2="500.925"/>
		
			<line fill="none" stroke="#262626" stroke-width="0.6667" stroke-linecap="square" stroke-linejoin="round" stroke-miterlimit="10" x1="187" y1="487.937" x2="192.58" y2="487.937"/>
		
			<line fill="none" stroke="#262626" stroke-width="0.6667" stroke-linecap="square" stroke-linejoin="round" stroke-miterlimit="10" x1="187" y1="476.955" x2="192.58" y2="476.955"/>
		
			<line fill="none" stroke="#262626" stroke-width="0.6667" stroke-linecap="square" stroke-linejoin="round" stroke-miterlimit="10" x1="187" y1="467.443" x2="192.58" y2="467.443"/>
		
			<line fill="none" stroke="#262626" stroke-width="0.6667" stroke-linecap="square" stroke-linejoin="round" stroke-miterlimit="10" x1="187" y1="459.052" x2="192.58" y2="459.052"/>
		
			<line fill="none" stroke="#262626" stroke-width="0.6667" stroke-linecap="square" stroke-linejoin="round" stroke-miterlimit="10" x1="187" y1="451.547" x2="192.58" y2="451.547"/>
		
			<line fill="none" stroke="#262626" stroke-width="0.6667" stroke-linecap="square" stroke-linejoin="round" stroke-miterlimit="10" x1="187" y1="402.168" x2="192.58" y2="402.168"/>
		
			<line fill="none" stroke="#262626" stroke-width="0.6667" stroke-linecap="square" stroke-linejoin="round" stroke-miterlimit="10" x1="187" y1="373.284" x2="192.58" y2="373.284"/>
		
			<line fill="none" stroke="#262626" stroke-width="0.6667" stroke-linecap="square" stroke-linejoin="round" stroke-miterlimit="10" x1="187" y1="352.79" x2="192.58" y2="352.79"/>
		
			<line fill="none" stroke="#262626" stroke-width="0.6667" stroke-linecap="square" stroke-linejoin="round" stroke-miterlimit="10" x1="187" y1="336.894" x2="192.58" y2="336.894"/>
		
			<line fill="none" stroke="#262626" stroke-width="0.6667" stroke-linecap="square" stroke-linejoin="round" stroke-miterlimit="10" x1="187" y1="323.905" x2="192.58" y2="323.905"/>
		
			<line fill="none" stroke="#262626" stroke-width="0.6667" stroke-linecap="square" stroke-linejoin="round" stroke-miterlimit="10" x1="187" y1="312.924" x2="192.58" y2="312.924"/>
		
			<line fill="none" stroke="#262626" stroke-width="0.6667" stroke-linecap="square" stroke-linejoin="round" stroke-miterlimit="10" x1="187" y1="303.411" x2="192.58" y2="303.411"/>
		
			<line fill="none" stroke="#262626" stroke-width="0.6667" stroke-linecap="square" stroke-linejoin="round" stroke-miterlimit="10" x1="187" y1="295.021" x2="192.58" y2="295.021"/>
		
			<line fill="none" stroke="#262626" stroke-width="0.6667" stroke-linecap="square" stroke-linejoin="round" stroke-miterlimit="10" x1="187" y1="287.515" x2="192.58" y2="287.515"/>
		
			<line fill="none" stroke="#262626" stroke-width="0.6667" stroke-linecap="square" stroke-linejoin="round" stroke-miterlimit="10" x1="187" y1="238.137" x2="192.58" y2="238.137"/>
		
			<line fill="none" stroke="#262626" stroke-width="0.6667" stroke-linecap="square" stroke-linejoin="round" stroke-miterlimit="10" x1="187" y1="209.253" x2="192.58" y2="209.253"/>
		
			<line fill="none" stroke="#262626" stroke-width="0.6667" stroke-linecap="square" stroke-linejoin="round" stroke-miterlimit="10" x1="187" y1="188.758" x2="192.58" y2="188.758"/>
		
			<line fill="none" stroke="#262626" stroke-width="0.6667" stroke-linecap="square" stroke-linejoin="round" stroke-miterlimit="10" x1="187" y1="172.862" x2="192.58" y2="172.862"/>
		
			<line fill="none" stroke="#262626" stroke-width="0.6667" stroke-linecap="square" stroke-linejoin="round" stroke-miterlimit="10" x1="187" y1="159.874" x2="192.58" y2="159.874"/>
		
			<line fill="none" stroke="#262626" stroke-width="0.6667" stroke-linecap="square" stroke-linejoin="round" stroke-miterlimit="10" x1="187" y1="148.893" x2="192.58" y2="148.893"/>
		
			<line fill="none" stroke="#262626" stroke-width="0.6667" stroke-linecap="square" stroke-linejoin="round" stroke-miterlimit="10" x1="187" y1="139.38" x2="192.58" y2="139.38"/>
		
			<line fill="none" stroke="#262626" stroke-width="0.6667" stroke-linecap="square" stroke-linejoin="round" stroke-miterlimit="10" x1="187" y1="130.989" x2="192.58" y2="130.989"/>
		
			<line fill="none" stroke="#262626" stroke-width="0.6667" stroke-linecap="square" stroke-linejoin="round" stroke-miterlimit="10" x1="187" y1="123.484" x2="192.58" y2="123.484"/>
		
			<line fill="none" stroke="#262626" stroke-width="0.6667" stroke-linecap="square" stroke-linejoin="round" stroke-miterlimit="10" x1="187" y1="74.106" x2="192.58" y2="74.106"/>
		
			<line fill="none" stroke="#262626" stroke-width="0.6667" stroke-linecap="square" stroke-linejoin="round" stroke-miterlimit="10" x1="1303" y1="631.474" x2="1297.42" y2="631.474"/>
		
			<line fill="none" stroke="#262626" stroke-width="0.6667" stroke-linecap="square" stroke-linejoin="round" stroke-miterlimit="10" x1="1303" y1="623.083" x2="1297.42" y2="623.083"/>
		
			<line fill="none" stroke="#262626" stroke-width="0.6667" stroke-linecap="square" stroke-linejoin="round" stroke-miterlimit="10" x1="1303" y1="615.577" x2="1297.42" y2="615.577"/>
		
			<line fill="none" stroke="#262626" stroke-width="0.6667" stroke-linecap="square" stroke-linejoin="round" stroke-miterlimit="10" x1="1303" y1="566.199" x2="1297.42" y2="566.199"/>
		
			<line fill="none" stroke="#262626" stroke-width="0.6667" stroke-linecap="square" stroke-linejoin="round" stroke-miterlimit="10" x1="1303" y1="537.315" x2="1297.42" y2="537.315"/>
		
			<line fill="none" stroke="#262626" stroke-width="0.6667" stroke-linecap="square" stroke-linejoin="round" stroke-miterlimit="10" x1="1303" y1="516.821" x2="1297.42" y2="516.821"/>
		
			<line fill="none" stroke="#262626" stroke-width="0.6667" stroke-linecap="square" stroke-linejoin="round" stroke-miterlimit="10" x1="1303" y1="500.925" x2="1297.42" y2="500.925"/>
		
			<line fill="none" stroke="#262626" stroke-width="0.6667" stroke-linecap="square" stroke-linejoin="round" stroke-miterlimit="10" x1="1303" y1="487.937" x2="1297.42" y2="487.937"/>
		
			<line fill="none" stroke="#262626" stroke-width="0.6667" stroke-linecap="square" stroke-linejoin="round" stroke-miterlimit="10" x1="1303" y1="476.955" x2="1297.42" y2="476.955"/>
		
			<line fill="none" stroke="#262626" stroke-width="0.6667" stroke-linecap="square" stroke-linejoin="round" stroke-miterlimit="10" x1="1303" y1="467.443" x2="1297.42" y2="467.443"/>
		
			<line fill="none" stroke="#262626" stroke-width="0.6667" stroke-linecap="square" stroke-linejoin="round" stroke-miterlimit="10" x1="1303" y1="459.052" x2="1297.42" y2="459.052"/>
		
			<line fill="none" stroke="#262626" stroke-width="0.6667" stroke-linecap="square" stroke-linejoin="round" stroke-miterlimit="10" x1="1303" y1="451.547" x2="1297.42" y2="451.547"/>
		
			<line fill="none" stroke="#262626" stroke-width="0.6667" stroke-linecap="square" stroke-linejoin="round" stroke-miterlimit="10" x1="1303" y1="402.168" x2="1297.42" y2="402.168"/>
		
			<line fill="none" stroke="#262626" stroke-width="0.6667" stroke-linecap="square" stroke-linejoin="round" stroke-miterlimit="10" x1="1303" y1="373.284" x2="1297.42" y2="373.284"/>
		
			<line fill="none" stroke="#262626" stroke-width="0.6667" stroke-linecap="square" stroke-linejoin="round" stroke-miterlimit="10" x1="1303" y1="352.79" x2="1297.42" y2="352.79"/>
		
			<line fill="none" stroke="#262626" stroke-width="0.6667" stroke-linecap="square" stroke-linejoin="round" stroke-miterlimit="10" x1="1303" y1="336.894" x2="1297.42" y2="336.894"/>
		
			<line fill="none" stroke="#262626" stroke-width="0.6667" stroke-linecap="square" stroke-linejoin="round" stroke-miterlimit="10" x1="1303" y1="323.905" x2="1297.42" y2="323.905"/>
		
			<line fill="none" stroke="#262626" stroke-width="0.6667" stroke-linecap="square" stroke-linejoin="round" stroke-miterlimit="10" x1="1303" y1="312.924" x2="1297.42" y2="312.924"/>
		
			<line fill="none" stroke="#262626" stroke-width="0.6667" stroke-linecap="square" stroke-linejoin="round" stroke-miterlimit="10" x1="1303" y1="303.411" x2="1297.42" y2="303.411"/>
		
			<line fill="none" stroke="#262626" stroke-width="0.6667" stroke-linecap="square" stroke-linejoin="round" stroke-miterlimit="10" x1="1303" y1="295.021" x2="1297.42" y2="295.021"/>
		
			<line fill="none" stroke="#262626" stroke-width="0.6667" stroke-linecap="square" stroke-linejoin="round" stroke-miterlimit="10" x1="1303" y1="287.515" x2="1297.42" y2="287.515"/>
		
			<line fill="none" stroke="#262626" stroke-width="0.6667" stroke-linecap="square" stroke-linejoin="round" stroke-miterlimit="10" x1="1303" y1="238.137" x2="1297.42" y2="238.137"/>
		
			<line fill="none" stroke="#262626" stroke-width="0.6667" stroke-linecap="square" stroke-linejoin="round" stroke-miterlimit="10" x1="1303" y1="209.253" x2="1297.42" y2="209.253"/>
		
			<line fill="none" stroke="#262626" stroke-width="0.6667" stroke-linecap="square" stroke-linejoin="round" stroke-miterlimit="10" x1="1303" y1="188.758" x2="1297.42" y2="188.758"/>
		
			<line fill="none" stroke="#262626" stroke-width="0.6667" stroke-linecap="square" stroke-linejoin="round" stroke-miterlimit="10" x1="1303" y1="172.862" x2="1297.42" y2="172.862"/>
		
			<line fill="none" stroke="#262626" stroke-width="0.6667" stroke-linecap="square" stroke-linejoin="round" stroke-miterlimit="10" x1="1303" y1="159.874" x2="1297.42" y2="159.874"/>
		
			<line fill="none" stroke="#262626" stroke-width="0.6667" stroke-linecap="square" stroke-linejoin="round" stroke-miterlimit="10" x1="1303" y1="148.893" x2="1297.42" y2="148.893"/>
		
			<line fill="none" stroke="#262626" stroke-width="0.6667" stroke-linecap="square" stroke-linejoin="round" stroke-miterlimit="10" x1="1303" y1="139.38" x2="1297.42" y2="139.38"/>
		
			<line fill="none" stroke="#262626" stroke-width="0.6667" stroke-linecap="square" stroke-linejoin="round" stroke-miterlimit="10" x1="1303" y1="130.989" x2="1297.42" y2="130.989"/>
		
			<line fill="none" stroke="#262626" stroke-width="0.6667" stroke-linecap="square" stroke-linejoin="round" stroke-miterlimit="10" x1="1303" y1="123.484" x2="1297.42" y2="123.484"/>
		
			<line fill="none" stroke="#262626" stroke-width="0.6667" stroke-linecap="square" stroke-linejoin="round" stroke-miterlimit="10" x1="1303" y1="74.106" x2="1297.42" y2="74.106"/>
	</g>
	<g transform="translate(179.5333,615.5776)">
		<text transform="matrix(1 0 0 1 -14 9.4998)" fill="#262626" font-family="'MyriadPro-Regular'" font-size="24">1</text>
	</g>
	<g transform="translate(179.5333,451.5464)">
		<text transform="matrix(1 0 0 1 -27 9.5007)" fill="#262626" font-family="'MyriadPro-Regular'" font-size="24">10</text>
	</g>
	<g transform="translate(179.5333,287.5151)">
		<text transform="matrix(1 0 0 1 -41 9.4997)" fill="#262626" font-family="'MyriadPro-Regular'" font-size="24">100</text>
	</g>
	<g transform="translate(179.5333,123.4838)">
		<text transform="matrix(1 0 0 1 -54 9.4998)" fill="#262626" font-family="'MyriadPro-Regular'" font-size="24">1000</text>
	</g>
	<g transform="translate(410.2,258.8226)">
		<circle fill="none" stroke="#0072BD" stroke-miterlimit="10" cx="0" cy="0" r="10.667"/>
		<circle fill="none" stroke="#0072BD" stroke-miterlimit="10" cx="-36.599" cy="175.41" r="10.667"/>
		<circle fill="none" stroke="#0072BD" stroke-miterlimit="10" cx="-129.639" cy="223.568" r="10.667"/>
		<circle fill="none" stroke="#0072BD" stroke-miterlimit="10" cx="-131.494" cy="220.652" r="10.667"/>
		<circle fill="none" stroke="#0072BD" stroke-miterlimit="10" cx="-57.695" cy="235.615" r="10.667"/>
		<circle fill="none" stroke="#0072BD" stroke-miterlimit="10" cx="-95.744" cy="156.841" r="10.667"/>
		<circle fill="none" stroke="#0072BD" stroke-miterlimit="10" cx="-89.765" cy="204.958" r="10.667"/>
		<circle fill="none" stroke="#0072BD" stroke-miterlimit="10" cx="-6.99" cy="202.072" r="10.667"/>
		<circle fill="none" stroke="#0072BD" stroke-miterlimit="10" cx="-134.756" cy="251.078" r="10.667"/>
		<circle fill="none" stroke="#0072BD" stroke-miterlimit="10" cx="-136.202" cy="253.339" r="10.667"/>
		<circle fill="none" stroke="#0072BD" stroke-miterlimit="10" cx="-116.606" cy="211.804" r="10.667"/>
		<circle fill="none" stroke="#0072BD" stroke-miterlimit="10" cx="-118.24" cy="208.15" r="10.667"/>
		<circle fill="none" stroke="#0072BD" stroke-miterlimit="10" cx="-32.176" cy="183.514" r="10.667"/>
		<circle fill="none" stroke="#0072BD" stroke-miterlimit="10" cx="-51.569" cy="78.158" r="10.667"/>
		<circle fill="none" stroke="#0072BD" stroke-miterlimit="10" cx="-109.27" cy="169.529" r="10.667"/>
		<circle fill="none" stroke="#0072BD" stroke-miterlimit="10" cx="-118.216" cy="148.786" r="10.667"/>
		<circle fill="none" stroke="#0072BD" stroke-miterlimit="10" cx="-89.481" cy="91.016" r="10.667"/>
		<circle fill="none" stroke="#0072BD" stroke-miterlimit="10" cx="-164.056" cy="305.925" r="10.667"/>
		<circle fill="none" stroke="#0072BD" stroke-miterlimit="10" cx="-165.192" cy="300.052" r="10.667"/>
		<circle fill="none" stroke="#0072BD" stroke-miterlimit="10" cx="-95.108" cy="247.613" r="10.667"/>
		<circle fill="none" stroke="#0072BD" stroke-miterlimit="10" cx="-95.864" cy="244.379" r="10.667"/>
		<circle fill="none" stroke="#0072BD" stroke-miterlimit="10" cx="-91.954" cy="246.97" r="10.667"/>
		<circle fill="none" stroke="#0072BD" stroke-miterlimit="10" cx="-92.928" cy="245.423" r="10.667"/>
		<circle fill="none" stroke="#0072BD" stroke-miterlimit="10" cx="-167.4" cy="319.344" r="10.667"/>
		<circle fill="none" stroke="#0072BD" stroke-miterlimit="10" cx="-55.543" cy="168.239" r="10.667"/>
		<circle fill="none" stroke="#D95319" stroke-miterlimit="10" cx="279" cy="223.327" r="10.667"/>
		<circle fill="none" stroke="#D95319" stroke-miterlimit="10" cx="242.401" cy="110.392" r="10.667"/>
		<circle fill="none" stroke="#D95319" stroke-miterlimit="10" cx="149.361" cy="242.278" r="10.667"/>
		<circle fill="none" stroke="#D95319" stroke-miterlimit="10" cx="147.506" cy="234.576" r="10.667"/>
		<circle fill="none" stroke="#D95319" stroke-miterlimit="10" cx="221.305" cy="246.639" r="10.667"/>
		<circle fill="none" stroke="#D95319" stroke-miterlimit="10" cx="183.256" cy="120.867" r="10.667"/>
		<circle fill="none" stroke="#D95319" stroke-miterlimit="10" cx="189.235" cy="222.816" r="10.667"/>
		<circle fill="none" stroke="#D95319" stroke-miterlimit="10" cx="272.011" cy="185.226" r="10.667"/>
		<circle fill="none" stroke="#D95319" stroke-miterlimit="10" cx="144.244" cy="282.298" r="10.667"/>
		<circle fill="none" stroke="#D95319" stroke-miterlimit="10" cx="142.798" cy="281.162" r="10.667"/>
		<circle fill="none" stroke="#D95319" stroke-miterlimit="10" cx="162.395" cy="241.555" r="10.667"/>
		<circle fill="none" stroke="#D95319" stroke-miterlimit="10" cx="160.76" cy="247.161" r="10.667"/>
		<circle fill="none" stroke="#D95319" stroke-miterlimit="10" cx="246.824" cy="257.376" r="10.667"/>
		<circle fill="none" stroke="#D95319" stroke-miterlimit="10" cx="227.431" cy="261.551" r="10.667"/>
		<circle fill="none" stroke="#D95319" stroke-miterlimit="10" cx="169.73" cy="120.583" r="10.667"/>
		<circle fill="none" stroke="#D95319" stroke-miterlimit="10" cx="160.783" cy="89.349" r="10.667"/>
		<circle fill="none" stroke="#D95319" stroke-miterlimit="10" cx="189.519" cy="279.21" r="10.667"/>
		<circle fill="none" stroke="#D95319" stroke-miterlimit="10" cx="114.945" cy="322.786" r="10.667"/>
		<circle fill="none" stroke="#D95319" stroke-miterlimit="10" cx="113.808" cy="309.827" r="10.667"/>
		<circle fill="none" stroke="#D95319" stroke-miterlimit="10" cx="183.892" cy="273.595" r="10.667"/>
		<circle fill="none" stroke="#D95319" stroke-miterlimit="10" cx="183.136" cy="269.236" r="10.667"/>
		<circle fill="none" stroke="#D95319" stroke-miterlimit="10" cx="187.046" cy="275.556" r="10.667"/>
		<circle fill="none" stroke="#D95319" stroke-miterlimit="10" cx="186.072" cy="279.406" r="10.667"/>
		<circle fill="none" stroke="#D95319" stroke-miterlimit="10" cx="111.6" cy="337.026" r="10.667"/>
		<circle fill="none" stroke="#D95319" stroke-miterlimit="10" cx="223.457" cy="118.172" r="10.667"/>
		<circle fill="none" stroke="#EDB120" stroke-miterlimit="10" cx="558" cy="255.822" r="10.667"/>
		<circle fill="none" stroke="#EDB120" stroke-miterlimit="10" cx="521.401" cy="166.814" r="10.667"/>
		<circle fill="none" stroke="#EDB120" stroke-miterlimit="10" cx="428.361" cy="256.661" r="10.667"/>
		<circle fill="none" stroke="#EDB120" stroke-miterlimit="10" cx="426.506" cy="248.994" r="10.667"/>
		<circle fill="none" stroke="#EDB120" stroke-miterlimit="10" cx="500.305" cy="260.197" r="10.667"/>
		<circle fill="none" stroke="#EDB120" stroke-miterlimit="10" cx="462.256" cy="170.541" r="10.667"/>
		<circle fill="none" stroke="#EDB120" stroke-miterlimit="10" cx="468.235" cy="265.931" r="10.667"/>
		<circle fill="none" stroke="#EDB120" stroke-miterlimit="10" cx="551.01" cy="225.434" r="10.667"/>
		<circle fill="none" stroke="#EDB120" stroke-miterlimit="10" cx="423.244" cy="288.389" r="10.667"/>
		<circle fill="none" stroke="#EDB120" stroke-miterlimit="10" cx="421.798" cy="286.074" r="10.667"/>
		<circle fill="none" stroke="#EDB120" stroke-miterlimit="10" cx="441.395" cy="271.251" r="10.667"/>
		<circle fill="none" stroke="#EDB120" stroke-miterlimit="10" cx="439.76" cy="270.811" r="10.667"/>
		<circle fill="none" stroke="#EDB120" stroke-miterlimit="10" cx="525.824" cy="270.957" r="10.667"/>
		<circle fill="none" stroke="#EDB120" stroke-miterlimit="10" cx="506.431" cy="276.194" r="10.667"/>
		<circle fill="none" stroke="#EDB120" stroke-miterlimit="10" cx="448.73" cy="171.292" r="10.667"/>
		<circle fill="none" stroke="#EDB120" stroke-miterlimit="10" cx="439.783" cy="161.251" r="10.667"/>
		<circle fill="none" stroke="#EDB120" stroke-miterlimit="10" cx="468.519" cy="288.502" r="10.667"/>
		<circle fill="none" stroke="#EDB120" stroke-miterlimit="10" cx="393.945" cy="341.778" r="10.667"/>
		<circle fill="none" stroke="#EDB120" stroke-miterlimit="10" cx="392.808" cy="352.827" r="10.667"/>
		<circle fill="none" stroke="#EDB120" stroke-miterlimit="10" cx="462.892" cy="290.183" r="10.667"/>
		<circle fill="none" stroke="#EDB120" stroke-miterlimit="10" cx="462.136" cy="287.001" r="10.667"/>
		<circle fill="none" stroke="#EDB120" stroke-miterlimit="10" cx="466.046" cy="281.983" r="10.667"/>
		<circle fill="none" stroke="#EDB120" stroke-miterlimit="10" cx="465.072" cy="284.251" r="10.667"/>
		<circle fill="none" stroke="#EDB120" stroke-miterlimit="10" cx="390.6" cy="368.92" r="10.667"/>
		<circle fill="none" stroke="#EDB120" stroke-miterlimit="10" cx="502.457" cy="166.182" r="10.667"/>
		<circle fill="none" stroke="#7E2F8E" stroke-miterlimit="10" cx="837" cy="-154.087" r="10.667"/>
		<circle fill="none" stroke="#7E2F8E" stroke-miterlimit="10" cx="800.401" cy="23.941" r="10.667"/>
		<circle fill="none" stroke="#7E2F8E" stroke-miterlimit="10" cx="707.361" cy="-58.621" r="10.667"/>
		<circle fill="none" stroke="#7E2F8E" stroke-miterlimit="10" cx="705.506" cy="-63.061" r="10.667"/>
		<circle fill="none" stroke="#7E2F8E" stroke-miterlimit="10" cx="779.305" cy="-161.603" r="10.667"/>
		<circle fill="none" stroke="#7E2F8E" stroke-miterlimit="10" cx="741.256" cy="-79.46" r="10.667"/>
		<circle fill="none" stroke="#7E2F8E" stroke-miterlimit="10" cx="747.235" cy="-115.094" r="10.667"/>
		<circle fill="none" stroke="#7E2F8E" stroke-miterlimit="10" cx="830.011" cy="-183.357" r="10.667"/>
		<circle fill="none" stroke="#7E2F8E" stroke-miterlimit="10" cx="702.244" cy="-18.758" r="10.667"/>
		<circle fill="none" stroke="#7E2F8E" stroke-miterlimit="10" cx="700.798" cy="-20.816" r="10.667"/>
		<circle fill="none" stroke="#7E2F8E" stroke-miterlimit="10" cx="720.395" cy="-75.96" r="10.667"/>
		<circle fill="none" stroke="#7E2F8E" stroke-miterlimit="10" cx="718.76" cy="-76.882" r="10.667"/>
		<circle fill="none" stroke="#7E2F8E" stroke-miterlimit="10" cx="804.823" cy="-163.629" r="10.667"/>
		<circle fill="none" stroke="#7E2F8E" stroke-miterlimit="10" cx="785.431" cy="-76.273" r="10.667"/>
		<circle fill="none" stroke="#7E2F8E" stroke-miterlimit="10" cx="727.73" cy="75.176" r="10.667"/>
		<circle fill="none" stroke="#7E2F8E" stroke-miterlimit="10" cx="718.784" cy="145.655" r="10.667"/>
		<circle fill="none" stroke="#7E2F8E" stroke-miterlimit="10" cx="747.519" cy="-18.118" r="10.667"/>
		<circle fill="none" stroke="#7E2F8E" stroke-miterlimit="10" cx="672.944" cy="82.447" r="10.667"/>
		<circle fill="none" stroke="#7E2F8E" stroke-miterlimit="10" cx="671.808" cy="78.555" r="10.667"/>
		<circle fill="none" stroke="#7E2F8E" stroke-miterlimit="10" cx="741.892" cy="-26.207" r="10.667"/>
		<circle fill="none" stroke="#7E2F8E" stroke-miterlimit="10" cx="741.136" cy="-32.41" r="10.667"/>
		<circle fill="none" stroke="#7E2F8E" stroke-miterlimit="10" cx="745.046" cy="-63.679" r="10.667"/>
		<circle fill="none" stroke="#7E2F8E" stroke-miterlimit="10" cx="744.072" cy="-64.605" r="10.667"/>
		<circle fill="none" stroke="#7E2F8E" stroke-miterlimit="10" cx="669.6" cy="192.845" r="10.667"/>
		<circle fill="none" stroke="#7E2F8E" stroke-miterlimit="10" cx="781.457" cy="-96.333" r="10.667"/>
	</g>
	<g transform="translate(373.6008,434.2327)">
		<circle fill="#0072BD" cx="0" cy="0" r="10.667"/>
	</g>
	<g transform="translate(373.6008,434.2327)">
		<circle fill="none" stroke="#0072BD" stroke-miterlimit="10" cx="0" cy="0" r="10.667"/>
	</g>
	<g transform="translate(652.6008,369.2143)">
		<circle fill="#D95319" cx="0" cy="0" r="10.667"/>
	</g>
	<g transform="translate(652.6008,369.2143)">
		<circle fill="none" stroke="#D95319" stroke-miterlimit="10" cx="0" cy="0" r="10.667"/>
	</g>
	<g transform="translate(931.6008,425.6364)">
		<circle fill="#EDB120" cx="0" cy="0" r="10.667"/>
	</g>
	<g transform="translate(931.6008,425.6364)">
		<circle fill="none" stroke="#EDB120" stroke-miterlimit="10" cx="0" cy="0" r="10.667"/>
	</g>
	<g transform="translate(1210.6008,282.7636)">
		<circle fill="#7E2F8E" cx="0" cy="0" r="10.667"/>
	</g>
	<g transform="translate(1210.6008,282.7636)">
		<circle fill="none" stroke="#7E2F8E" stroke-miterlimit="10" cx="0" cy="0" r="10.667"/>
	</g>
</g>
<text transform="matrix(-4.371139e-008 -1 1 -4.371139e-008 54.5718 540.8439)"><tspan x="0" y="0" font-family="'MyriadPro-Regular'" font-size="36">normalized parse time</tspan><tspan x="-56.754" y="43.2" font-family="'MyriadPro-Regular'" font-size="36">(parse_time/turtle parse time)</tspan></text>
</svg>
